FrauncesItalic-BlackOpMaxGoofMax.ufo
<glyph name="exclam" format="2">
  <advance width="267"/>
  <unicode hex="0021"/>
  <outline>
    <contour>
      <point x="314" y="710" type="curve" smooth="yes"/>
      <point x="372" y="710"/>
      <point x="419" y="655"/>
      <point x="419" y="591" type="curve" smooth="yes"/>
      <point x="419" y="578"/>
      <point x="422" y="569"/>
      <point x="408" y="545" type="curve" smooth="yes"/>
      <point x="260" y="268" type="line" smooth="yes"/>
      <point x="236" y="219"/>
      <point x="214" y="207"/>
      <point x="184" y="207" type="curve" smooth="yes"/>
      <point x="156" y="207"/>
      <point x="139" y="233"/>
      <point x="143" y="273" type="curve" smooth="yes"/>
      <point x="168" y="572" type="line" smooth="yes"/>
      <point x="170" y="585"/>
      <point x="172" y="594"/>
      <point x="175" y="604" type="curve" smooth="yes"/>
      <point x="195" y="662"/>
      <point x="252" y="710"/>
    </contour>
    <component base="period" xScale="0.9329999999999999" yScale="0.9329999999999999" xOffset="-1" yOffset="-1"/>
  </outline>
</glyph>
<glyph name="ampersand" format="2">
  <advance width="739"/>
  <unicode hex="0026"/>
  <outline>
    <contour>
      <point x="181" y="161" type="line" smooth="yes"/>
      <point x="4" y="34"/>
      <point x="-37" y="-45"/>
      <point x="-37" y="-110" type="curve" smooth="yes"/>
      <point x="-37" y="-202"/>
      <point x="16" y="-245"/>
      <point x="84" y="-245" type="curve" smooth="yes"/>
      <point x="157" y="-245"/>
      <point x="211" y="-196"/>
      <point x="211" y="-137" type="curve" smooth="yes"/>
      <point x="211" y="-93"/>
      <point x="168" y="-75"/>
      <point x="168" y="-30" type="curve" smooth="yes"/>
      <point x="168" y="17"/>
      <point x="178" y="72"/>
      <point x="259" y="128" type="curve" smooth="yes"/>
      <point x="617" y="382" type="line" smooth="yes"/>
      <point x="755" y="478"/>
      <point x="805" y="545"/>
      <point x="805" y="623" type="curve" smooth="yes"/>
      <point x="805" y="681"/>
      <point x="761" y="715"/>
      <point x="714" y="715" type="curve" smooth="yes"/>
      <point x="631" y="715"/>
      <point x="573" y="661"/>
      <point x="573" y="613" type="curve" smooth="yes"/>
      <point x="573" y="577"/>
      <point x="601" y="556"/>
      <point x="601" y="511" type="curve" smooth="yes"/>
      <point x="601" y="476"/>
      <point x="585" y="449"/>
      <point x="537" y="416" type="curve" smooth="yes"/>
    </contour>
    <contour>
      <point x="578" y="123" type="curve" smooth="yes"/>
      <point x="578" y="88"/>
      <point x="537" y="72"/>
      <point x="486" y="72" type="curve" smooth="yes"/>
      <point x="373" y="72"/>
      <point x="311" y="135"/>
      <point x="311" y="241" type="curve" smooth="yes"/>
      <point x="311" y="354"/>
      <point x="352" y="432"/>
      <point x="398" y="432" type="curve" smooth="yes"/>
      <point x="401" y="432"/>
      <point x="418" y="420"/>
      <point x="418" y="380" type="curve" smooth="yes"/>
      <point x="418" y="276"/>
      <point x="402" y="225"/>
      <point x="428" y="244" type="curve" smooth="yes"/>
      <point x="508" y="305"/>
      <point x="565" y="335"/>
      <point x="597" y="335" type="curve" smooth="yes"/>
      <point x="621" y="335"/>
      <point x="636" y="359"/>
      <point x="636" y="387" type="curve" smooth="yes"/>
      <point x="636" y="444"/>
      <point x="542" y="489"/>
      <point x="411" y="489" type="curve" smooth="yes"/>
      <point x="243" y="489"/>
      <point x="109" y="351"/>
      <point x="109" y="190" type="curve" smooth="yes"/>
      <point x="109" y="67"/>
      <point x="216" y="-14"/>
      <point x="426" y="-14" type="curve" smooth="yes"/>
      <point x="668" y="-14"/>
      <point x="760" y="59"/>
      <point x="760" y="183" type="curve" smooth="yes"/>
      <point x="760" y="266"/>
      <point x="706" y="306"/>
      <point x="639" y="306" type="curve" smooth="yes"/>
      <point x="579" y="306"/>
      <point x="546" y="264"/>
      <point x="546" y="223" type="curve" smooth="yes"/>
      <point x="546" y="182"/>
      <point x="578" y="160"/>
    </contour>
  </outline>
</glyph>
<glyph name="one" format="2">
  <advance width="458"/>
  <unicode hex="0031"/>
  <outline>
    <contour>
      <point x="184" y="550" type="line" smooth="yes"/>
      <point x="155" y="550"/>
      <point x="143" y="567"/>
      <point x="152" y="590" type="curve" smooth="yes"/>
      <point x="157" y="612"/>
      <point x="179" y="629"/>
      <point x="207" y="629" type="curve" smooth="yes"/>
      <point x="233" y="629" type="line" smooth="yes"/>
      <point x="307" y="629"/>
      <point x="362" y="632"/>
      <point x="414" y="665" type="curve" smooth="yes"/>
      <point x="434" y="676"/>
      <point x="447" y="681"/>
      <point x="467" y="681" type="curve" smooth="yes"/>
      <point x="493" y="681"/>
      <point x="504" y="668"/>
      <point x="495" y="636" type="curve" smooth="yes"/>
      <point x="369" y="168" type="line" smooth="yes"/>
      <point x="358" y="121"/>
      <point x="369" y="89"/>
      <point x="392" y="82" type="curve" smooth="yes"/>
      <point x="398" y="75" type="line" smooth="yes"/>
      <point x="421" y="70"/>
      <point x="437" y="61"/>
      <point x="432" y="39" type="curve" smooth="yes"/>
      <point x="424" y="12"/>
      <point x="407" y="0"/>
      <point x="379" y="0" type="curve" smooth="yes"/>
      <point x="59" y="0" type="line" smooth="yes"/>
      <point x="32" y="0"/>
      <point x="19" y="12"/>
      <point x="26" y="40" type="curve" smooth="yes"/>
      <point x="32" y="63"/>
      <point x="52" y="71"/>
      <point x="81" y="78" type="curve" smooth="yes"/>
      <point x="86" y="85" type="line" smooth="yes"/>
      <point x="121" y="93"/>
      <point x="152" y="120"/>
      <point x="163" y="168" type="curve" smooth="yes"/>
      <point x="239" y="449" type="line" smooth="yes"/>
      <point x="258" y="520"/>
      <point x="240" y="550"/>
      <point x="195" y="550" type="curve" smooth="yes"/>
    </contour>
  </outline>
</glyph>
<glyph name="two" format="2">
  <advance width="565"/>
  <unicode hex="0032"/>
  <outline>
    <contour>
      <point x="304" y="316" type="curve" smooth="yes"/>
      <point x="131" y="254"/>
      <point x="46" y="159"/>
      <point x="27" y="77" type="curve" smooth="yes"/>
      <point x="13" y="20"/>
      <point x="39" y="-14"/>
      <point x="87" y="-14" type="curve" smooth="yes"/>
      <point x="114" y="-14"/>
      <point x="128" y="27"/>
      <point x="172" y="27" type="curve" smooth="yes"/>
      <point x="257" y="27"/>
      <point x="297" y="-14"/>
      <point x="404" y="-14" type="curve" smooth="yes"/>
      <point x="510" y="-14"/>
      <point x="605" y="46"/>
      <point x="631" y="175" type="curve" smooth="yes"/>
      <point x="639" y="219"/>
      <point x="626" y="237"/>
      <point x="596" y="237" type="curve" smooth="yes"/>
      <point x="573" y="237"/>
      <point x="552" y="224"/>
      <point x="540" y="201" type="curve" smooth="yes"/>
      <point x="520" y="164"/>
      <point x="503" y="153"/>
      <point x="466" y="153" type="curve" smooth="yes"/>
      <point x="401" y="153"/>
      <point x="348" y="188"/>
      <point x="248" y="188" type="curve" smooth="yes"/>
      <point x="159" y="188"/>
      <point x="107" y="108"/>
      <point x="87" y="26" type="curve"/>
      <point x="134" y="27" type="line"/>
      <point x="150" y="102"/>
      <point x="187" y="171"/>
      <point x="354" y="233" type="curve" smooth="yes"/>
      <point x="569" y="322"/>
      <point x="668" y="396"/>
      <point x="694" y="494" type="curve" smooth="yes"/>
      <point x="720" y="595"/>
      <point x="643" y="669"/>
      <point x="462" y="669" type="curve" smooth="yes"/>
      <point x="280" y="669"/>
      <point x="184" y="611"/>
      <point x="163" y="504" type="curve" smooth="yes"/>
      <point x="150" y="429"/>
      <point x="186" y="378"/>
      <point x="245" y="378" type="curve" smooth="yes"/>
      <point x="307" y="378"/>
      <point x="357" y="421"/>
      <point x="375" y="488" type="curve" smooth="yes"/>
      <point x="381" y="504" type="line" smooth="yes"/>
      <point x="399" y="563"/>
      <point x="423" y="591"/>
      <point x="449" y="591" type="curve" smooth="yes"/>
      <point x="471" y="591"/>
      <point x="490" y="555"/>
      <point x="477" y="495" type="curve" smooth="yes"/>
      <point x="457" y="407"/>
      <point x="409" y="351"/>
    </contour>
  </outline>
</glyph>
<glyph name="five" format="2">
  <advance width="580"/>
  <unicode hex="0035"/>
  <outline>
    <contour>
      <point x="53" y="142" type="curve" smooth="yes"/>
      <point x="39" y="58"/>
      <point x="117" y="-12"/>
      <point x="243" y="-12" type="curve" smooth="yes"/>
      <point x="416" y="-12"/>
      <point x="585" y="75"/>
      <point x="598" y="187" type="curve" smooth="yes"/>
      <point x="623" y="322"/>
      <point x="532" y="408"/>
      <point x="354" y="408" type="curve" smooth="yes"/>
      <point x="297" y="408"/>
      <point x="233" y="388"/>
      <point x="187" y="339" type="curve"/>
      <point x="229" y="311" type="line"/>
      <point x="306" y="600" type="line"/>
      <point x="261" y="502" type="line"/>
      <point x="283" y="468"/>
      <point x="346" y="455"/>
      <point x="423" y="453" type="curve" smooth="yes"/>
      <point x="553" y="451"/>
      <point x="667" y="515"/>
      <point x="686" y="604" type="curve" smooth="yes"/>
      <point x="698" y="649"/>
      <point x="675" y="670"/>
      <point x="650" y="670" type="curve" smooth="yes"/>
      <point x="630" y="670"/>
      <point x="614" y="663"/>
      <point x="599" y="643" type="curve" smooth="yes"/>
      <point x="595" y="633"/>
      <point x="579" y="630"/>
      <point x="558" y="630" type="curve" smooth="yes"/>
      <point x="434" y="630"/>
      <point x="363" y="669"/>
      <point x="295" y="669" type="curve" smooth="yes"/>
      <point x="254" y="669"/>
      <point x="234" y="652"/>
      <point x="225" y="625" type="curve" smooth="yes"/>
      <point x="137" y="336" type="line" smooth="yes"/>
      <point x="124" y="293"/>
      <point x="147" y="256"/>
      <point x="173" y="256" type="curve" smooth="yes"/>
      <point x="189" y="256"/>
      <point x="209" y="257"/>
      <point x="227" y="274" type="curve" smooth="yes"/>
      <point x="262" y="308"/>
      <point x="293" y="321"/>
      <point x="321" y="321" type="curve" smooth="yes"/>
      <point x="386" y="321"/>
      <point x="412" y="286"/>
      <point x="400" y="214" type="curve" smooth="yes"/>
      <point x="389" y="119"/>
      <point x="334" y="50"/>
      <point x="270" y="50" type="curve" smooth="yes"/>
      <point x="245" y="50"/>
      <point x="230" y="81"/>
      <point x="242" y="121" type="curve" smooth="yes"/>
      <point x="249" y="153" type="line" smooth="yes"/>
      <point x="263" y="216"/>
      <point x="228" y="256"/>
      <point x="164" y="256" type="curve" smooth="yes"/>
      <point x="110" y="256"/>
      <point x="64" y="206"/>
    </contour>
  </outline>
</glyph>
<glyph name="A" format="2">
  <advance width="674"/>
  <unicode hex="0041"/>
  <anchor x="511" y="766" name="center"/>
  <outline>
    <contour>
      <point x="141" y="125" type="curve" smooth="yes"/>
      <point x="141" y="132"/>
      <point x="144" y="143"/>
      <point x="155" y="162" type="curve" smooth="yes"/>
      <point x="336" y="462" type="line" smooth="yes"/>
      <point x="380" y="535"/>
      <point x="406" y="557"/>
      <point x="431" y="571" type="curve"/>
      <point x="385" y="585" type="line"/>
      <point x="386" y="472"/>
      <point x="376" y="244"/>
      <point x="375" y="160" type="curve" smooth="yes"/>
      <point x="374" y="123"/>
      <point x="364" y="95"/>
      <point x="338" y="87" type="curve" smooth="yes"/>
      <point x="316" y="82" type="line" smooth="yes"/>
      <point x="289" y="73"/>
      <point x="278" y="58"/>
      <point x="278" y="36" type="curve" smooth="yes"/>
      <point x="278" y="16"/>
      <point x="292" y="0"/>
      <point x="313" y="0" type="curve" smooth="yes"/>
      <point x="598" y="0" type="line" smooth="yes"/>
      <point x="625" y="0"/>
      <point x="647" y="17"/>
      <point x="647" y="40" type="curve" smooth="yes"/>
      <point x="647" y="59"/>
      <point x="643" y="73"/>
      <point x="621" y="87" type="curve" smooth="yes"/>
      <point x="598" y="96"/>
      <point x="592" y="123"/>
      <point x="588" y="164" type="curve" smooth="yes"/>
      <point x="585" y="213"/>
      <point x="593" y="451"/>
      <point x="591" y="531" type="curve" smooth="yes"/>
      <point x="592" y="579"/>
      <point x="612" y="617"/>
      <point x="645" y="634" type="curve" smooth="yes"/>
      <point x="662" y="647"/>
      <point x="668" y="657"/>
      <point x="668" y="676" type="curve" smooth="yes"/>
      <point x="668" y="701"/>
      <point x="646" y="719"/>
      <point x="583" y="719" type="curve" smooth="yes"/>
      <point x="466" y="719"/>
      <point x="358" y="650"/>
      <point x="271" y="503" type="curve" smooth="yes"/>
      <point x="74" y="178" type="line" smooth="yes"/>
      <point x="49" y="136"/>
      <point x="22" y="119"/>
      <point x="-1" y="107" type="curve" smooth="yes"/>
      <point x="-33" y="83"/>
      <point x="-47" y="62"/>
      <point x="-47" y="38" type="curve" smooth="yes"/>
      <point x="-47" y="17"/>
      <point x="-31" y="0"/>
      <point x="-6" y="0" type="curve" smooth="yes"/>
      <point x="160" y="0" type="line" smooth="yes"/>
      <point x="187" y="0"/>
      <point x="205" y="16"/>
      <point x="205" y="43" type="curve" smooth="yes"/>
      <point x="205" y="60"/>
      <point x="193" y="79"/>
      <point x="170" y="93" type="curve" smooth="yes"/>
      <point x="152" y="99"/>
      <point x="140" y="111"/>
    </contour>
    <contour>
      <point x="147" y="215" type="line"/>
      <point x="435" y="215" type="line"/>
      <point x="439" y="284" type="line"/>
      <point x="156" y="284" type="line"/>
    </contour>
  </outline>
</glyph>
<glyph name="B" format="2">
  <advance width="732"/>
  <unicode hex="0042"/>
  <outline>
    <contour>
      <point x="395" y="544" type="curve" smooth="yes"/>
      <point x="410" y="599"/>
      <point x="441" y="622"/>
      <point x="478" y="622" type="curve" smooth="yes"/>
      <point x="516" y="622"/>
      <point x="542" y="594"/>
      <point x="540" y="536" type="curve" smooth="yes"/>
      <point x="538" y="421"/>
      <point x="478" y="364"/>
      <point x="402" y="364" type="curve" smooth="yes"/>
      <point x="282" y="364" type="line"/>
      <point x="265" y="300" type="line"/>
      <point x="395" y="300" type="line" smooth="yes"/>
      <point x="452" y="300"/>
      <point x="484" y="266"/>
      <point x="483" y="202" type="curve" smooth="yes"/>
      <point x="481" y="122"/>
      <point x="434" y="80"/>
      <point x="369" y="80" type="curve" smooth="yes"/>
      <point x="320" y="80"/>
      <point x="287" y="112"/>
      <point x="300" y="180" type="curve" smooth="yes"/>
      <point x="310" y="226"/>
      <point x="367" y="448"/>
    </contour>
    <contour>
      <point x="157" y="700" type="line" smooth="yes"/>
      <point x="128" y="700"/>
      <point x="115" y="684"/>
      <point x="115" y="667" type="curve" smooth="yes"/>
      <point x="115" y="643"/>
      <point x="124" y="635"/>
      <point x="144" y="627" type="curve" smooth="yes"/>
      <point x="165" y="621" type="line" smooth="yes"/>
      <point x="188" y="614"/>
      <point x="193" y="591"/>
      <point x="186" y="550" type="curve" smooth="yes"/>
      <point x="171" y="465"/>
      <point x="98" y="212"/>
      <point x="71" y="123" type="curve" smooth="yes"/>
      <point x="64" y="102"/>
      <point x="51" y="91"/>
      <point x="31" y="84" type="curve" smooth="yes"/>
      <point x="10" y="78" type="line" smooth="yes"/>
      <point x="-20" y="68"/>
      <point x="-28" y="51"/>
      <point x="-28" y="33" type="curve" smooth="yes"/>
      <point x="-28" y="13"/>
      <point x="-16" y="0"/>
      <point x="5" y="0" type="curve" smooth="yes"/>
      <point x="378" y="0" type="line" smooth="yes"/>
      <point x="590" y="0"/>
      <point x="710" y="83"/>
      <point x="711" y="196" type="curve" smooth="yes"/>
      <point x="713" y="285"/>
      <point x="653" y="344"/>
      <point x="479" y="344" type="curve"/>
      <point x="480" y="336" type="line"/>
      <point x="645" y="336"/>
      <point x="756" y="415"/>
      <point x="758" y="526" type="curve" smooth="yes"/>
      <point x="759" y="639"/>
      <point x="681" y="700"/>
      <point x="533" y="700" type="curve" smooth="yes"/>
    </contour>
  </outline>
</glyph>
<glyph name="G" format="2">
  <advance width="751"/>
  <unicode hex="0047"/>
  <anchor x="538" y="783" name="center"/>
  <outline>
    <contour>
      <point x="487" y="714" type="curve" smooth="yes"/>
      <point x="221" y="714"/>
      <point x="42" y="499"/>
      <point x="38" y="239" type="curve" smooth="yes"/>
      <point x="36" y="80"/>
      <point x="136" y="-14"/>
      <point x="312" y="-14" type="curve" smooth="yes"/>
      <point x="402" y="-14"/>
      <point x="443" y="27"/>
      <point x="469" y="27" type="curve" smooth="yes"/>
      <point x="500" y="27"/>
      <point x="519" y="-14"/>
      <point x="553" y="-14" type="curve" smooth="yes"/>
      <point x="586" y="-14"/>
      <point x="614" y="16"/>
      <point x="626" y="60" type="curve" smooth="yes"/>
      <point x="671" y="228" type="line" smooth="yes"/>
      <point x="680" y="261"/>
      <point x="690" y="278"/>
      <point x="714" y="287" type="curve" smooth="yes"/>
      <point x="744" y="298" type="line" smooth="yes"/>
      <point x="764" y="308"/>
      <point x="770" y="322"/>
      <point x="771" y="340" type="curve" smooth="yes"/>
      <point x="773" y="363"/>
      <point x="762" y="375"/>
      <point x="727" y="375" type="curve" smooth="yes"/>
      <point x="435" y="375" type="line" smooth="yes"/>
      <point x="412" y="375"/>
      <point x="397" y="363"/>
      <point x="397" y="339" type="curve" smooth="yes"/>
      <point x="397" y="321"/>
      <point x="403" y="310"/>
      <point x="428" y="302" type="curve" smooth="yes"/>
      <point x="458" y="294" type="line" smooth="yes"/>
      <point x="476" y="288"/>
      <point x="489" y="273"/>
      <point x="486" y="253" type="curve" smooth="yes"/>
      <point x="450" y="136" type="line" smooth="yes"/>
      <point x="435" y="88"/>
      <point x="408" y="74"/>
      <point x="363" y="74" type="curve" smooth="yes"/>
      <point x="301" y="74"/>
      <point x="266" y="127"/>
      <point x="267" y="226" type="curve" smooth="yes"/>
      <point x="272" y="434"/>
      <point x="370" y="621"/>
      <point x="502" y="621" type="curve" smooth="yes"/>
      <point x="559" y="621"/>
      <point x="602" y="596"/>
      <point x="624" y="525" type="curve" smooth="yes"/>
      <point x="634" y="497" type="line" smooth="yes"/>
      <point x="642" y="464"/>
      <point x="666" y="444"/>
      <point x="693" y="444" type="curve" smooth="yes"/>
      <point x="721" y="444"/>
      <point x="745" y="462"/>
      <point x="743" y="497" type="curve" smooth="yes"/>
      <point x="738" y="673" type="line" smooth="yes"/>
      <point x="736" y="701"/>
      <point x="721" y="716"/>
      <point x="700" y="716" type="curve" smooth="yes"/>
      <point x="678" y="716"/>
      <point x="650" y="666"/>
      <point x="620" y="666" type="curve" smooth="yes"/>
      <point x="597" y="666"/>
      <point x="565" y="714"/>
    </contour>
  </outline>
</glyph>
<glyph name="H" format="2">
  <advance width="837"/>
  <unicode hex="0048"/>
  <outline>
    <contour>
      <point x="284" y="373" type="line"/>
      <point x="253" y="294" type="line"/>
      <point x="629" y="294" type="line"/>
      <point x="659" y="373" type="line"/>
    </contour>
    <contour>
      <point x="295" y="108" type="curve" smooth="yes"/>
      <point x="299" y="133"/>
      <point x="376" y="465"/>
      <point x="418" y="582" type="curve" smooth="yes"/>
      <point x="426" y="605"/>
      <point x="435" y="615"/>
      <point x="447" y="617" type="curve" smooth="yes"/>
      <point x="475" y="624" type="line" smooth="yes"/>
      <point x="496" y="628"/>
      <point x="509" y="643"/>
      <point x="509" y="664" type="curve" smooth="yes"/>
      <point x="509" y="685"/>
      <point x="494" y="700"/>
      <point x="467" y="700" type="curve" smooth="yes"/>
      <point x="163" y="700" type="line" smooth="yes"/>
      <point x="140" y="700"/>
      <point x="125" y="681"/>
      <point x="125" y="658" type="curve" smooth="yes"/>
      <point x="125" y="639"/>
      <point x="137" y="627"/>
      <point x="157" y="623" type="curve" smooth="yes"/>
      <point x="178" y="618" type="line" smooth="yes"/>
      <point x="193" y="615"/>
      <point x="198" y="606"/>
      <point x="196" y="591" type="curve" smooth="yes"/>
      <point x="193" y="569"/>
      <point x="106" y="227"/>
      <point x="74" y="120" type="curve" smooth="yes"/>
      <point x="67" y="97"/>
      <point x="57" y="88"/>
      <point x="38" y="84" type="curve" smooth="yes"/>
      <point x="13" y="78" type="line" smooth="yes"/>
      <point x="-7" y="74"/>
      <point x="-19" y="58"/>
      <point x="-19" y="36" type="curve" smooth="yes"/>
      <point x="-19" y="16"/>
      <point x="-5" y="0"/>
      <point x="18" y="0" type="curve" smooth="yes"/>
      <point x="319" y="0" type="line" smooth="yes"/>
      <point x="351" y="0"/>
      <point x="367" y="16"/>
      <point x="367" y="41" type="curve" smooth="yes"/>
      <point x="367" y="60"/>
      <point x="355" y="73"/>
      <point x="340" y="79" type="curve" smooth="yes"/>
      <point x="312" y="88" type="line" smooth="yes"/>
      <point x="302" y="92"/>
      <point x="293" y="98"/>
    </contour>
    <contour>
      <point x="707" y="108" type="curve" smooth="yes"/>
      <point x="711" y="133"/>
      <point x="787" y="465"/>
      <point x="829" y="582" type="curve" smooth="yes"/>
      <point x="838" y="605"/>
      <point x="847" y="615"/>
      <point x="859" y="617" type="curve" smooth="yes"/>
      <point x="887" y="624" type="line" smooth="yes"/>
      <point x="908" y="628"/>
      <point x="921" y="643"/>
      <point x="921" y="664" type="curve" smooth="yes"/>
      <point x="921" y="685"/>
      <point x="906" y="700"/>
      <point x="879" y="700" type="curve" smooth="yes"/>
      <point x="574" y="700" type="line" smooth="yes"/>
      <point x="552" y="700"/>
      <point x="537" y="681"/>
      <point x="537" y="658" type="curve" smooth="yes"/>
      <point x="537" y="639"/>
      <point x="549" y="627"/>
      <point x="569" y="623" type="curve" smooth="yes"/>
      <point x="590" y="618" type="line" smooth="yes"/>
      <point x="605" y="615"/>
      <point x="610" y="606"/>
      <point x="608" y="591" type="curve" smooth="yes"/>
      <point x="605" y="569"/>
      <point x="517" y="227"/>
      <point x="485" y="120" type="curve" smooth="yes"/>
      <point x="479" y="97"/>
      <point x="469" y="88"/>
      <point x="450" y="84" type="curve" smooth="yes"/>
      <point x="424" y="78" type="line" smooth="yes"/>
      <point x="405" y="74"/>
      <point x="393" y="58"/>
      <point x="393" y="36" type="curve" smooth="yes"/>
      <point x="393" y="16"/>
      <point x="406" y="0"/>
      <point x="429" y="0" type="curve" smooth="yes"/>
      <point x="730" y="0" type="line" smooth="yes"/>
      <point x="763" y="0"/>
      <point x="779" y="16"/>
      <point x="779" y="41" type="curve" smooth="yes"/>
      <point x="779" y="60"/>
      <point x="767" y="73"/>
      <point x="751" y="79" type="curve" smooth="yes"/>
      <point x="724" y="88" type="line" smooth="yes"/>
      <point x="714" y="92"/>
      <point x="705" y="98"/>
    </contour>
  </outline>
</glyph>
<glyph name="P" format="2">
  <advance width="687"/>
  <unicode hex="0050"/>
  <outline>
    <contour>
      <point x="826" y="497" type="curve" smooth="yes"/>
      <point x="826" y="623"/>
      <point x="729" y="700"/>
      <point x="575" y="700" type="curve" smooth="yes"/>
      <point x="208" y="700" type="line" smooth="yes"/>
      <point x="188" y="700"/>
      <point x="179" y="662"/>
      <point x="179" y="652" type="curve" smooth="yes"/>
      <point x="179" y="632"/>
      <point x="183" y="613"/>
      <point x="198" y="609" type="curve" smooth="yes"/>
      <point x="227" y="600" type="line" smooth="yes"/>
      <point x="244" y="594"/>
      <point x="252" y="587"/>
      <point x="252" y="572" type="curve" smooth="yes"/>
      <point x="252" y="567"/>
      <point x="252" y="560"/>
      <point x="249" y="549" type="curve"/>
      <point x="217" y="416"/>
      <point x="185" y="274"/>
      <point x="147" y="141" type="curve" smooth="yes"/>
      <point x="142" y="120"/>
      <point x="129" y="103"/>
      <point x="108" y="98" type="curve" smooth="yes"/>
      <point x="77" y="91" type="line" smooth="yes"/>
      <point x="55" y="86"/>
      <point x="49" y="61"/>
      <point x="49" y="39" type="curve" smooth="yes"/>
      <point x="49" y="14"/>
      <point x="57" y="0"/>
      <point x="71" y="0" type="curve" smooth="yes"/>
      <point x="412" y="0" type="line" smooth="yes"/>
      <point x="428" y="0"/>
      <point x="440" y="20"/>
      <point x="440" y="46" type="curve" smooth="yes"/>
      <point x="440" y="68"/>
      <point x="436" y="88"/>
      <point x="422" y="91" type="curve" smooth="yes"/>
      <point x="389" y="99" type="line" smooth="yes"/>
      <point x="366" y="104"/>
      <point x="356" y="113"/>
      <point x="356" y="127" type="curve" smooth="yes"/>
      <point x="356" y="132"/>
      <point x="357" y="137"/>
      <point x="360" y="151" type="curve" smooth="yes"/>
      <point x="393" y="274"/>
      <point x="464" y="518"/>
      <point x="470" y="550" type="curve" smooth="yes"/>
      <point x="481" y="595"/>
      <point x="528" y="612"/>
      <point x="570" y="612" type="curve" smooth="yes"/>
      <point x="596" y="612"/>
      <point x="615" y="589"/>
      <point x="615" y="540" type="curve" smooth="yes"/>
      <point x="615" y="376"/>
      <point x="553" y="274"/>
      <point x="484" y="274" type="curve" smooth="yes"/>
      <point x="405" y="274"/>
      <point x="332" y="297"/>
      <point x="265" y="345" type="curve"/>
      <point x="249" y="277" type="line"/>
      <point x="342" y="213"/>
      <point x="400" y="178"/>
      <point x="530" y="178" type="curve" smooth="yes"/>
      <point x="686" y="178"/>
      <point x="826" y="308"/>
    </contour>
  </outline>
</glyph>
<glyph name="V" format="2">
  <advance width="673"/>
  <unicode hex="0056"/>
  <outline>
    <contour>
      <point x="551" y="660" type="curve" smooth="yes"/>
      <point x="551" y="644"/>
      <point x="559" y="630"/>
      <point x="574" y="621" type="curve" smooth="yes"/>
      <point x="597" y="612" type="line" smooth="yes"/>
      <point x="618" y="603"/>
      <point x="623" y="572"/>
      <point x="594" y="527" type="curve" smooth="yes"/>
      <point x="301" y="68" type="line"/>
      <point x="365" y="92" type="line"/>
      <point x="359" y="267"/>
      <point x="353" y="469"/>
      <point x="352" y="542" type="curve" smooth="yes"/>
      <point x="350" y="592"/>
      <point x="364" y="607"/>
      <point x="390" y="615" type="curve" smooth="yes"/>
      <point x="412" y="620" type="line" smooth="yes"/>
      <point x="434" y="628"/>
      <point x="447" y="640"/>
      <point x="447" y="664" type="curve" smooth="yes"/>
      <point x="447" y="687"/>
      <point x="433" y="700"/>
      <point x="410" y="700" type="curve" smooth="yes"/>
      <point x="134" y="700" type="line" smooth="yes"/>
      <point x="110" y="700"/>
      <point x="89" y="682"/>
      <point x="89" y="659" type="curve" smooth="yes"/>
      <point x="89" y="639"/>
      <point x="97" y="624"/>
      <point x="113" y="616" type="curve" smooth="yes"/>
      <point x="118" y="613" type="line" smooth="yes"/>
      <point x="133" y="605"/>
      <point x="138" y="591"/>
      <point x="140" y="562" type="curve" smooth="yes"/>
      <point x="146" y="440"/>
      <point x="156" y="206"/>
      <point x="157" y="159" type="curve" smooth="yes"/>
      <point x="158" y="142"/>
      <point x="160" y="111"/>
      <point x="156" y="92" type="curve" smooth="yes"/>
      <point x="147" y="56" type="line" smooth="yes"/>
      <point x="140" y="24"/>
      <point x="163" y="0"/>
      <point x="187" y="0" type="curve" smooth="yes"/>
      <point x="345" y="0" type="line" smooth="yes"/>
      <point x="379" y="0"/>
      <point x="394" y="21"/>
      <point x="399" y="47" type="curve" smooth="yes"/>
      <point x="406" y="71" type="line" smooth="yes"/>
      <point x="411" y="91"/>
      <point x="417" y="106"/>
      <point x="429" y="123" type="curve" smooth="yes"/>
      <point x="679" y="509" type="line" smooth="yes"/>
      <point x="718" y="567"/>
      <point x="735" y="586"/>
      <point x="764" y="600" type="curve" smooth="yes"/>
      <point x="782" y="608" type="line" smooth="yes"/>
      <point x="801" y="617"/>
      <point x="807" y="635"/>
      <point x="807" y="657" type="curve" smooth="yes"/>
      <point x="807" y="684"/>
      <point x="792" y="700"/>
      <point x="763" y="700" type="curve" smooth="yes"/>
      <point x="587" y="700" type="line" smooth="yes"/>
      <point x="565" y="700"/>
      <point x="551" y="684"/>
    </contour>
  </outline>
</glyph>
<glyph name="W" format="2">
  <advance width="1070"/>
  <unicode hex="0057"/>
  <anchor x="709" y="739" name="center"/>
  <outline>
    <contour>
      <point x="622" y="580" type="line"/>
      <point x="334" y="128" type="line"/>
      <point x="388" y="118" type="line"/>
      <point x="388" y="256"/>
      <point x="373" y="454"/>
      <point x="376" y="542" type="curve" smooth="yes"/>
      <point x="375" y="578"/>
      <point x="393" y="594"/>
      <point x="437" y="601" type="curve" smooth="yes"/>
      <point x="460" y="605"/>
      <point x="471" y="630"/>
      <point x="471" y="657" type="curve" smooth="yes"/>
      <point x="471" y="687"/>
      <point x="451" y="700"/>
      <point x="412" y="700" type="curve" smooth="yes"/>
      <point x="174" y="700" type="line" smooth="yes"/>
      <point x="153" y="700"/>
      <point x="138" y="683"/>
      <point x="138" y="661" type="curve" smooth="yes"/>
      <point x="138" y="639"/>
      <point x="147" y="628"/>
      <point x="149" y="622" type="curve" smooth="yes"/>
      <point x="169" y="605"/>
      <point x="180" y="584"/>
      <point x="181" y="548" type="curve" smooth="yes"/>
      <point x="187" y="402"/>
      <point x="198" y="213"/>
      <point x="200" y="108" type="curve" smooth="yes"/>
      <point x="201" y="85"/>
      <point x="184" y="51"/>
      <point x="184" y="28" type="curve" smooth="yes"/>
      <point x="184" y="11"/>
      <point x="188" y="0"/>
      <point x="206" y="0" type="curve" smooth="yes"/>
      <point x="374" y="0" type="line" smooth="yes"/>
      <point x="391" y="0"/>
      <point x="404" y="12"/>
      <point x="408" y="29" type="curve" smooth="yes"/>
      <point x="420" y="74"/>
      <point x="430" y="96"/>
      <point x="445" y="120" type="curve" smooth="yes"/>
      <point x="678" y="484" type="line"/>
    </contour>
    <contour>
      <point x="961" y="654" type="curve" smooth="yes"/>
      <point x="961" y="633"/>
      <point x="971" y="619"/>
      <point x="989" y="598" type="curve" smooth="yes"/>
      <point x="994" y="591"/>
      <point x="1009" y="561"/>
      <point x="1010" y="545" type="curve" smooth="yes"/>
      <point x="1010" y="530"/>
      <point x="1010" y="507"/>
      <point x="1000" y="490" type="curve" smooth="yes"/>
      <point x="786" y="148" type="line"/>
      <point x="821" y="118" type="line"/>
      <point x="817" y="244"/>
      <point x="798" y="449"/>
      <point x="790" y="538" type="curve" smooth="yes"/>
      <point x="788" y="570"/>
      <point x="806" y="580"/>
      <point x="844" y="588" type="curve" smooth="yes"/>
      <point x="874" y="599"/>
      <point x="878" y="629"/>
      <point x="878" y="658" type="curve" smooth="yes"/>
      <point x="878" y="687"/>
      <point x="863" y="700"/>
      <point x="821" y="700" type="curve" smooth="yes"/>
      <point x="600" y="700" type="line" smooth="yes"/>
      <point x="580" y="700"/>
      <point x="563" y="684"/>
      <point x="561" y="656" type="curve" smooth="yes"/>
      <point x="558" y="636"/>
      <point x="560" y="619"/>
      <point x="578" y="607" type="curve" smooth="yes"/>
      <point x="597" y="597"/>
      <point x="608" y="585"/>
      <point x="612" y="548" type="curve" smooth="yes"/>
      <point x="624" y="414"/>
      <point x="636" y="264"/>
      <point x="643" y="118" type="curve" smooth="yes"/>
      <point x="645" y="87"/>
      <point x="623" y="50"/>
      <point x="623" y="29" type="curve" smooth="yes"/>
      <point x="623" y="12"/>
      <point x="632" y="0"/>
      <point x="648" y="0" type="curve" smooth="yes"/>
      <point x="823" y="0" type="line" smooth="yes"/>
      <point x="840" y="0"/>
      <point x="855" y="12"/>
      <point x="859" y="34" type="curve" smooth="yes"/>
      <point x="866" y="73"/>
      <point x="857" y="102"/>
      <point x="869" y="119" type="curve" smooth="yes"/>
      <point x="1094" y="475" type="line" smooth="yes"/>
      <point x="1126" y="528"/>
      <point x="1167" y="551"/>
      <point x="1200" y="565" type="curve" smooth="yes"/>
      <point x="1241" y="582"/>
      <point x="1250" y="602"/>
      <point x="1250" y="628" type="curve" smooth="yes"/>
      <point x="1250" y="677"/>
      <point x="1220" y="700"/>
      <point x="1168" y="700" type="curve" smooth="yes"/>
      <point x="987" y="700" type="line" smooth="yes"/>
      <point x="972" y="700"/>
      <point x="961" y="681"/>
    </contour>
  </outline>
</glyph>
<glyph name="X" format="2">
  <advance width="698"/>
  <unicode hex="0058"/>
  <outline>
    <contour>
      <point x="326" y="400" type="line"/>
      <point x="205" y="240" type="line" smooth="yes"/>
      <point x="136" y="148"/>
      <point x="100" y="131"/>
      <point x="59" y="121" type="curve" smooth="yes"/>
      <point x="7" y="111"/>
      <point x="-7" y="89"/>
      <point x="-7" y="61" type="curve" smooth="yes"/>
      <point x="-7" y="23"/>
      <point x="10" y="0"/>
      <point x="49" y="0" type="curve" smooth="yes"/>
      <point x="227" y="0" type="line" smooth="yes"/>
      <point x="250" y="0"/>
      <point x="269" y="20"/>
      <point x="269" y="48" type="curve" smooth="yes"/>
      <point x="269" y="61"/>
      <point x="271" y="77"/>
      <point x="252" y="89" type="curve" smooth="yes"/>
      <point x="230" y="98"/>
      <point x="224" y="114"/>
      <point x="224" y="128" type="curve" smooth="yes"/>
      <point x="224" y="149"/>
      <point x="246" y="162"/>
      <point x="298" y="231" type="curve" smooth="yes"/>
      <point x="375" y="334" type="line"/>
    </contour>
    <contour>
      <point x="461" y="560" type="curve" smooth="yes"/>
      <point x="454" y="582"/>
      <point x="466" y="599"/>
      <point x="481" y="603" type="curve" smooth="yes"/>
      <point x="504" y="609" type="line" smooth="yes"/>
      <point x="531" y="616"/>
      <point x="545" y="632"/>
      <point x="545" y="658" type="curve" smooth="yes"/>
      <point x="545" y="685"/>
      <point x="531" y="700"/>
      <point x="506" y="700" type="curve" smooth="yes"/>
      <point x="204" y="700" type="line" smooth="yes"/>
      <point x="175" y="700"/>
      <point x="155" y="683"/>
      <point x="155" y="658" type="curve" smooth="yes"/>
      <point x="155" y="637"/>
      <point x="163" y="620"/>
      <point x="198" y="606" type="curve" smooth="yes"/>
      <point x="218" y="598"/>
      <point x="228" y="592"/>
      <point x="240" y="563" type="curve" smooth="yes"/>
      <point x="308" y="399"/>
      <point x="377" y="231"/>
      <point x="410" y="144" type="curve" smooth="yes"/>
      <point x="414" y="131"/>
      <point x="415" y="125"/>
      <point x="415" y="120" type="curve" smooth="yes"/>
      <point x="415" y="106"/>
      <point x="401" y="96"/>
      <point x="376" y="93" type="curve" smooth="yes"/>
      <point x="345" y="88"/>
      <point x="332" y="72"/>
      <point x="332" y="49" type="curve" smooth="yes"/>
      <point x="332" y="22"/>
      <point x="343" y="0"/>
      <point x="370" y="0" type="curve" smooth="yes"/>
      <point x="669" y="0" type="line" smooth="yes"/>
      <point x="696" y="0"/>
      <point x="713" y="19"/>
      <point x="713" y="45" type="curve" smooth="yes"/>
      <point x="713" y="71"/>
      <point x="707" y="83"/>
      <point x="675" y="95" type="curve" smooth="yes"/>
      <point x="656" y="101"/>
      <point x="642" y="112"/>
      <point x="631" y="136" type="curve" smooth="yes"/>
      <point x="564" y="292"/>
      <point x="489" y="472"/>
    </contour>
    <contour>
      <point x="541" y="309" type="line"/>
      <point x="634" y="456" type="line" smooth="yes"/>
      <point x="630" y="473"/>
      <point x="682" y="516"/>
      <point x="696" y="516" type="curve" smooth="yes"/>
      <point x="732" y="516"/>
      <point x="754" y="489"/>
      <point x="800" y="489" type="curve" smooth="yes"/>
      <point x="846" y="489"/>
      <point x="894" y="527"/>
      <point x="894" y="586" type="curve" smooth="yes"/>
      <point x="894" y="658"/>
      <point x="855" y="714"/>
      <point x="776" y="714" type="curve" smooth="yes"/>
      <point x="716" y="714"/>
      <point x="670" y="685"/>
      <point x="556" y="489" type="curve" smooth="yes"/>
      <point x="489" y="386" type="line"/>
    </contour>
  </outline>
</glyph>
<glyph name="e" format="2">
  <advance width="508"/>
  <unicode hex="0065"/>
  <anchor x="269" y="497" name="center"/>
  <outline>
    <contour>
      <point x="107" y="209" type="curve"/>
      <point x="111" y="156" type="line"/>
      <point x="111" y="156"/>
      <point x="374" y="220"/>
      <point x="460" y="245" type="curve" smooth="yes"/>
      <point x="493" y="256"/>
      <point x="502" y="270"/>
      <point x="502" y="287" type="curve" smooth="yes"/>
      <point x="502" y="300"/>
      <point x="497" y="307"/>
      <point x="488" y="311" type="curve" smooth="yes"/>
      <point x="480" y="313"/>
      <point x="476" y="325"/>
      <point x="473" y="338" type="curve" smooth="yes"/>
      <point x="461" y="411"/>
      <point x="423" y="458"/>
      <point x="331" y="458" type="curve" smooth="yes"/>
      <point x="161" y="458"/>
      <point x="14" y="314"/>
      <point x="14" y="158" type="curve" smooth="yes"/>
      <point x="14" y="58"/>
      <point x="82" y="-12"/>
      <point x="198" y="-12" type="curve" smooth="yes"/>
      <point x="367" y="-12"/>
      <point x="470" y="64"/>
      <point x="482" y="162" type="curve" smooth="yes"/>
      <point x="483" y="178"/>
      <point x="476" y="194"/>
      <point x="459" y="194" type="curve" smooth="yes"/>
      <point x="441" y="194"/>
      <point x="431" y="186"/>
      <point x="414" y="165" type="curve" smooth="yes"/>
      <point x="389" y="127"/>
      <point x="344" y="106"/>
      <point x="293" y="106" type="curve" smooth="yes"/>
      <point x="237" y="106"/>
      <point x="210" y="143"/>
      <point x="210" y="209" type="curve" smooth="yes"/>
      <point x="210" y="299"/>
      <point x="257" y="379"/>
      <point x="288" y="379" type="curve" smooth="yes"/>
      <point x="304" y="379"/>
      <point x="312" y="366"/>
      <point x="312" y="345" type="curve" smooth="yes"/>
      <point x="312" y="303"/>
      <point x="303" y="266"/>
      <point x="292" y="237" type="curve"/>
      <point x="333" y="271" type="line"/>
      <point x="278" y="251"/>
      <point x="107" y="209"/>
    </contour>
  </outline>
</glyph>
<glyph name="f" format="2">
  <advance width="367"/>
  <unicode hex="0066"/>
  <outline>
    <contour>
      <point x="221" y="365" type="line"/>
      <point x="341" y="365" type="line" smooth="yes"/>
      <point x="382" y="365"/>
      <point x="411" y="392"/>
      <point x="411" y="429" type="curve" smooth="yes"/>
      <point x="411" y="448"/>
      <point x="395" y="457"/>
      <point x="369" y="457" type="curve" smooth="yes"/>
      <point x="256" y="457" type="line"/>
    </contour>
    <contour>
      <point x="45" y="419" type="curve" smooth="yes"/>
      <point x="45" y="405"/>
      <point x="54" y="392"/>
      <point x="69" y="381" type="curve" smooth="yes"/>
      <point x="100" y="368"/>
      <point x="110" y="345"/>
      <point x="96" y="294" type="curve" smooth="yes"/>
      <point x="5" y="-42" type="line" smooth="yes"/>
      <point x="-6" y="-81"/>
      <point x="-15" y="-108"/>
      <point x="-15" y="-139" type="curve" smooth="yes"/>
      <point x="-15" y="-186"/>
      <point x="12" y="-212"/>
      <point x="59" y="-212" type="curve" smooth="yes"/>
      <point x="153" y="-212"/>
      <point x="252" y="-165"/>
      <point x="252" y="-102" type="curve" smooth="yes"/>
      <point x="252" y="-64"/>
      <point x="205" y="-54"/>
      <point x="205" y="-18" type="curve" smooth="yes"/>
      <point x="205" y="-6"/>
      <point x="205" y="10"/>
      <point x="211" y="32" type="curve" smooth="yes"/>
      <point x="301" y="388" type="line" smooth="yes"/>
      <point x="325" y="482"/>
      <point x="248" y="529"/>
      <point x="248" y="587" type="curve" smooth="yes"/>
      <point x="248" y="620"/>
      <point x="269" y="645"/>
      <point x="293" y="645" type="curve" smooth="yes"/>
      <point x="347" y="645"/>
      <point x="360" y="551"/>
      <point x="430" y="551" type="curve" smooth="yes"/>
      <point x="482" y="551"/>
      <point x="516" y="586"/>
      <point x="516" y="637" type="curve" smooth="yes"/>
      <point x="516" y="688"/>
      <point x="477" y="731"/>
      <point x="403" y="731" type="curve" smooth="yes"/>
      <point x="251" y="731"/>
      <point x="153" y="646"/>
      <point x="141" y="495" type="curve" smooth="yes"/>
      <point x="138" y="457" type="line"/>
      <point x="92" y="457" type="line" smooth="yes"/>
      <point x="63" y="457"/>
      <point x="45" y="441"/>
    </contour>
  </outline>
</glyph>
<glyph name="h" format="2">
  <advance width="579"/>
  <unicode hex="0068"/>
  <outline>
    <contour>
      <point x="214" y="169" type="curve" smooth="yes"/>
      <point x="209" y="147"/>
      <point x="205" y="129"/>
      <point x="205" y="117" type="curve" smooth="yes"/>
      <point x="205" y="93"/>
      <point x="215" y="81"/>
      <point x="215" y="60" type="curve" smooth="yes"/>
      <point x="215" y="17"/>
      <point x="149" y="-11"/>
      <point x="66" y="-11" type="curve" smooth="yes"/>
      <point x="18" y="-11"/>
      <point x="-4" y="6"/>
      <point x="-4" y="45" type="curve" smooth="yes"/>
      <point x="-4" y="58"/>
      <point x="-5" y="77"/>
      <point x="6" y="110" type="curve" smooth="yes"/>
      <point x="128" y="489" type="line" smooth="yes"/>
      <point x="174" y="632"/>
      <point x="296" y="735"/>
      <point x="509" y="735" type="curve" smooth="yes"/>
      <point x="599" y="735"/>
      <point x="649" y="688"/>
      <point x="649" y="624" type="curve" smooth="yes"/>
      <point x="649" y="582"/>
      <point x="616" y="546"/>
      <point x="564" y="546" type="curve" smooth="yes"/>
      <point x="484" y="546"/>
      <point x="449" y="656"/>
      <point x="393" y="656" type="curve" smooth="yes"/>
      <point x="372" y="656"/>
      <point x="343" y="621"/>
      <point x="335" y="593" type="curve" smooth="yes"/>
      <point x="299" y="437"/>
      <point x="271" y="357"/>
      <point x="261" y="309" type="curve"/>
      <point x="248" y="312" type="line"/>
      <point x="307" y="413"/>
      <point x="398" y="456"/>
      <point x="474" y="456" type="curve" smooth="yes"/>
      <point x="523" y="456"/>
      <point x="552" y="425"/>
      <point x="552" y="385" type="curve" smooth="yes"/>
      <point x="552" y="356"/>
      <point x="547" y="327"/>
      <point x="534" y="296" type="curve" smooth="yes"/>
      <point x="489" y="173" type="line" smooth="yes"/>
      <point x="484" y="160"/>
      <point x="482" y="153"/>
      <point x="481" y="142" type="curve" smooth="yes"/>
      <point x="480" y="134"/>
      <point x="480" y="121"/>
      <point x="492" y="121" type="curve" smooth="yes"/>
      <point x="498" y="121"/>
      <point x="502" y="123"/>
      <point x="512" y="132" type="curve" smooth="yes"/>
      <point x="530" y="143"/>
      <point x="535" y="150"/>
      <point x="546" y="150" type="curve" smooth="yes"/>
      <point x="560" y="150"/>
      <point x="567" y="138"/>
      <point x="565" y="125" type="curve" smooth="yes"/>
      <point x="556" y="53"/>
      <point x="484" y="-11"/>
      <point x="375" y="-11" type="curve" smooth="yes"/>
      <point x="312" y="-11"/>
      <point x="276" y="12"/>
      <point x="278" y="71" type="curve" smooth="yes"/>
      <point x="279" y="93"/>
      <point x="286" y="116"/>
      <point x="293" y="138" type="curve" smooth="yes"/>
      <point x="328" y="238" type="line" smooth="yes"/>
      <point x="334" y="255"/>
      <point x="339" y="276"/>
      <point x="339" y="288" type="curve" smooth="yes"/>
      <point x="339" y="300"/>
      <point x="331" y="309"/>
      <point x="322" y="309" type="curve" smooth="yes"/>
      <point x="277" y="309"/>
      <point x="240" y="256"/>
    </contour>
  </outline>
</glyph>
<glyph name="k" format="2">
  <advance width="571"/>
  <unicode hex="006B"/>
  <outline>
    <contour>
      <point x="251" y="327" type="line"/>
      <point x="289" y="415"/>
      <point x="385" y="467"/>
      <point x="472" y="467" type="curve" smooth="yes"/>
      <point x="561" y="467"/>
      <point x="621" y="424"/>
      <point x="621" y="337" type="curve" smooth="yes"/>
      <point x="621" y="240"/>
      <point x="492" y="163"/>
      <point x="209" y="128" type="curve"/>
      <point x="207" y="193" type="line"/>
      <point x="371" y="208"/>
      <point x="429" y="269"/>
      <point x="429" y="336" type="curve" smooth="yes"/>
      <point x="429" y="362"/>
      <point x="422" y="376"/>
      <point x="400" y="376" type="curve" smooth="yes"/>
      <point x="356" y="376"/>
      <point x="296" y="323"/>
      <point x="255" y="176" type="curve" smooth="yes"/>
      <point x="247" y="143"/>
      <point x="237" y="122"/>
      <point x="237" y="105" type="curve" smooth="yes"/>
      <point x="237" y="76"/>
      <point x="240" y="62"/>
      <point x="240" y="44" type="curve" smooth="yes"/>
      <point x="240" y="9"/>
      <point x="184" y="-14"/>
      <point x="119" y="-14" type="curve" smooth="yes"/>
      <point x="72" y="-14"/>
      <point x="42" y="9"/>
      <point x="42" y="50" type="curve" smooth="yes"/>
      <point x="42" y="68"/>
      <point x="45" y="87"/>
      <point x="55" y="113" type="curve" smooth="yes"/>
      <point x="180" y="487" type="line" smooth="yes"/>
      <point x="230" y="634"/>
      <point x="332" y="705"/>
      <point x="508" y="705" type="curve" smooth="yes"/>
      <point x="591" y="705"/>
      <point x="631" y="656"/>
      <point x="631" y="603" type="curve" smooth="yes"/>
      <point x="631" y="567"/>
      <point x="597" y="534"/>
      <point x="537" y="534" type="curve" smooth="yes"/>
      <point x="471" y="534"/>
      <point x="428" y="618"/>
      <point x="377" y="618" type="curve" smooth="yes"/>
      <point x="372" y="618"/>
      <point x="370" y="605"/>
      <point x="351" y="532" type="curve" smooth="yes"/>
      <point x="308" y="367"/>
      <point x="276" y="318"/>
      <point x="274" y="268" type="curve"/>
    </contour>
    <contour>
      <point x="277" y="145" type="curve"/>
      <point x="382" y="170" type="line"/>
      <point x="401" y="155"/>
      <point x="413" y="130"/>
      <point x="429" y="130" type="curve" smooth="yes"/>
      <point x="475" y="130"/>
      <point x="490" y="177"/>
      <point x="521" y="177" type="curve" smooth="yes"/>
      <point x="553" y="177"/>
      <point x="573" y="159"/>
      <point x="573" y="127" type="curve" smooth="yes"/>
      <point x="573" y="45"/>
      <point x="494" y="-15"/>
      <point x="383" y="-15" type="curve" smooth="yes"/>
      <point x="333" y="-15"/>
      <point x="288" y="20"/>
    </contour>
  </outline>
</glyph>
<glyph name="m" format="2">
  <advance width="876"/>
  <unicode hex="006D"/>
  <outline>
    <contour>
      <point x="313" y="124" type="line" smooth="yes"/>
      <point x="303" y="96"/>
      <point x="298" y="83"/>
      <point x="298" y="55" type="curve" smooth="yes"/>
      <point x="298" y="10"/>
      <point x="325" y="-12"/>
      <point x="370" y="-12" type="curve" smooth="yes"/>
      <point x="453" y="-12"/>
      <point x="510" y="15"/>
      <point x="512" y="61" type="curve" smooth="yes"/>
      <point x="513" y="83"/>
      <point x="500" y="99"/>
      <point x="500" y="121" type="curve" smooth="yes"/>
      <point x="500" y="134"/>
      <point x="505" y="158"/>
      <point x="525" y="210" type="curve" smooth="yes"/>
      <point x="547" y="270"/>
      <point x="580" y="308"/>
      <point x="616" y="308" type="curve" smooth="yes"/>
      <point x="629" y="308"/>
      <point x="633" y="297"/>
      <point x="633" y="285" type="curve" smooth="yes"/>
      <point x="633" y="266"/>
      <point x="627" y="245"/>
      <point x="617" y="220" type="curve" smooth="yes"/>
      <point x="592" y="148" type="line" smooth="yes"/>
      <point x="581" y="118"/>
      <point x="573" y="87"/>
      <point x="574" y="59" type="curve" smooth="yes"/>
      <point x="574" y="14"/>
      <point x="605" y="-12"/>
      <point x="659" y="-12" type="curve" smooth="yes"/>
      <point x="774" y="-12"/>
      <point x="851" y="53"/>
      <point x="861" y="124" type="curve" smooth="yes"/>
      <point x="862" y="139"/>
      <point x="853" y="149"/>
      <point x="841" y="149" type="curve" smooth="yes"/>
      <point x="834" y="149"/>
      <point x="831" y="148"/>
      <point x="822" y="140" type="curve" smooth="yes"/>
      <point x="810" y="128"/>
      <point x="799" y="122"/>
      <point x="790" y="122" type="curve" smooth="yes"/>
      <point x="781" y="122"/>
      <point x="775" y="129"/>
      <point x="775" y="138" type="curve" smooth="yes"/>
      <point x="775" y="150"/>
      <point x="781" y="160"/>
      <point x="786" y="174" type="curve" smooth="yes"/>
      <point x="834" y="309" type="line" smooth="yes"/>
      <point x="843" y="334"/>
      <point x="849" y="353"/>
      <point x="849" y="377" type="curve" smooth="yes"/>
      <point x="849" y="424"/>
      <point x="819" y="456"/>
      <point x="765" y="456" type="curve" smooth="yes"/>
      <point x="662" y="456"/>
      <point x="564" y="371"/>
      <point x="495" y="232" type="curve"/>
      <point x="510" y="225" type="line"/>
      <point x="514" y="280"/>
      <point x="570" y="342"/>
      <point x="570" y="399" type="curve" smooth="yes"/>
      <point x="570" y="434"/>
      <point x="544" y="456"/>
      <point x="494" y="456" type="curve" smooth="yes"/>
      <point x="387" y="456"/>
      <point x="293" y="380"/>
      <point x="223" y="230" type="curve"/>
      <point x="239" y="226" type="line"/>
      <point x="250" y="305"/>
      <point x="297" y="350"/>
      <point x="297" y="399" type="curve" smooth="yes"/>
      <point x="297" y="434"/>
      <point x="271" y="457"/>
      <point x="219" y="457" type="curve" smooth="yes"/>
      <point x="107" y="457"/>
      <point x="27" y="387"/>
      <point x="14" y="324" type="curve" smooth="yes"/>
      <point x="13" y="309"/>
      <point x="21" y="298"/>
      <point x="34" y="298" type="curve" smooth="yes"/>
      <point x="45" y="298"/>
      <point x="51" y="301"/>
      <point x="59" y="308" type="curve" smooth="yes"/>
      <point x="69" y="320"/>
      <point x="82" y="328"/>
      <point x="93" y="328" type="curve" smooth="yes"/>
      <point x="101" y="328"/>
      <point x="107" y="320"/>
      <point x="106" y="309" type="curve" smooth="yes"/>
      <point x="105" y="294"/>
      <point x="103" y="287"/>
      <point x="97" y="272" type="curve" smooth="yes"/>
      <point x="35" y="109" type="line" smooth="yes"/>
      <point x="27" y="89"/>
      <point x="20" y="71"/>
      <point x="22" y="52" type="curve" smooth="yes"/>
      <point x="23" y="9"/>
      <point x="45" y="-12"/>
      <point x="85" y="-12" type="curve" smooth="yes"/>
      <point x="174" y="-12"/>
      <point x="239" y="17"/>
      <point x="239" y="60" type="curve" smooth="yes"/>
      <point x="239" y="80"/>
      <point x="228" y="100"/>
      <point x="228" y="121" type="curve" smooth="yes"/>
      <point x="227" y="136"/>
      <point x="234" y="157"/>
      <point x="247" y="192" type="curve" smooth="yes"/>
      <point x="275" y="271"/>
      <point x="311" y="308"/>
      <point x="345" y="308" type="curve" smooth="yes"/>
      <point x="355" y="308"/>
      <point x="362" y="298"/>
      <point x="362" y="286" type="curve" smooth="yes"/>
      <point x="362" y="271"/>
      <point x="357" y="255"/>
      <point x="350" y="235" type="curve" smooth="yes"/>
    </contour>
  </outline>
</glyph>
<glyph name="n" format="2">
  <advance width="604"/>
  <unicode hex="006E"/>
  <outline>
    <contour>
      <point x="21" y="303" type="curve" smooth="yes"/>
      <point x="32" y="295"/>
      <point x="47" y="298"/>
      <point x="57" y="308" type="curve" smooth="yes"/>
      <point x="72" y="324"/>
      <point x="82" y="328"/>
      <point x="92" y="328" type="curve" smooth="yes"/>
      <point x="99" y="328"/>
      <point x="105" y="322"/>
      <point x="105" y="311" type="curve" smooth="yes"/>
      <point x="105" y="298"/>
      <point x="103" y="285"/>
      <point x="96" y="268" type="curve" smooth="yes"/>
      <point x="34" y="112" type="line" smooth="yes"/>
      <point x="24" y="90"/>
      <point x="20" y="70"/>
      <point x="20" y="47" type="curve" smooth="yes"/>
      <point x="21" y="3"/>
      <point x="45" y="-12"/>
      <point x="86" y="-12" type="curve" smooth="yes"/>
      <point x="184" y="-12"/>
      <point x="240" y="16"/>
      <point x="240" y="59" type="curve" smooth="yes"/>
      <point x="240" y="83"/>
      <point x="230" y="100"/>
      <point x="230" y="121" type="curve" smooth="yes"/>
      <point x="230" y="139"/>
      <point x="238" y="165"/>
      <point x="253" y="205" type="curve" smooth="yes"/>
      <point x="278" y="276"/>
      <point x="315" y="308"/>
      <point x="344" y="308" type="curve" smooth="yes"/>
      <point x="356" y="308"/>
      <point x="364" y="299"/>
      <point x="364" y="285" type="curve" smooth="yes"/>
      <point x="364" y="274"/>
      <point x="361" y="259"/>
      <point x="355" y="242" type="curve" smooth="yes"/>
      <point x="316" y="134" type="line" smooth="yes"/>
      <point x="308" y="111"/>
      <point x="303" y="89"/>
      <point x="303" y="55" type="curve" smooth="yes"/>
      <point x="302" y="15"/>
      <point x="337" y="-12"/>
      <point x="396" y="-12" type="curve" smooth="yes"/>
      <point x="492" y="-12"/>
      <point x="550" y="30"/>
      <point x="581" y="95" type="curve" smooth="yes"/>
      <point x="594" y="119"/>
      <point x="593" y="137"/>
      <point x="582" y="144" type="curve" smooth="yes"/>
      <point x="573" y="152"/>
      <point x="566" y="150"/>
      <point x="557" y="145" type="curve" smooth="yes"/>
      <point x="539" y="130"/>
      <point x="531" y="122"/>
      <point x="521" y="122" type="curve" smooth="yes"/>
      <point x="510" y="122"/>
      <point x="504" y="128"/>
      <point x="504" y="139" type="curve" smooth="yes"/>
      <point x="504" y="146"/>
      <point x="509" y="160"/>
      <point x="515" y="177" type="curve" smooth="yes"/>
      <point x="554" y="285" type="line" smooth="yes"/>
      <point x="569" y="324"/>
      <point x="578" y="352"/>
      <point x="578" y="384" type="curve" smooth="yes"/>
      <point x="578" y="424"/>
      <point x="549" y="456"/>
      <point x="496" y="456" type="curve" smooth="yes"/>
      <point x="406" y="456"/>
      <point x="307" y="400"/>
      <point x="223" y="230" type="curve"/>
      <point x="240" y="225" type="line"/>
      <point x="244" y="281"/>
      <point x="298" y="351"/>
      <point x="298" y="398" type="curve" smooth="yes"/>
      <point x="298" y="437"/>
      <point x="274" y="457"/>
      <point x="222" y="457" type="curve" smooth="yes"/>
      <point x="131" y="457"/>
      <point x="61" y="415"/>
      <point x="23" y="353" type="curve" smooth="yes"/>
      <point x="9" y="331"/>
      <point x="10" y="313"/>
    </contour>
  </outline>
</glyph>
<glyph name="p" format="2">
  <advance width="562"/>
  <unicode hex="0070"/>
  <outline>
    <contour>
      <point x="333" y="403" type="line" smooth="yes"/>
      <point x="352" y="476"/>
      <point x="354" y="482"/>
      <point x="354" y="491" type="curve" smooth="yes"/>
      <point x="354" y="517"/>
      <point x="329" y="540"/>
      <point x="303" y="540" type="curve" smooth="yes"/>
      <point x="240" y="540"/>
      <point x="195" y="511"/>
      <point x="169" y="408" type="curve" smooth="yes"/>
      <point x="38" y="-121" type="line" smooth="yes"/>
      <point x="33" y="-140"/>
      <point x="16" y="-151"/>
      <point x="-8" y="-160" type="curve" smooth="yes"/>
      <point x="-37" y="-175"/>
      <point x="-46" y="-189"/>
      <point x="-46" y="-201" type="curve" smooth="yes"/>
      <point x="-46" y="-225"/>
      <point x="-35" y="-236"/>
      <point x="-19" y="-236" type="curve" smooth="yes"/>
      <point x="239" y="-229" type="line" smooth="yes"/>
      <point x="255" y="-230"/>
      <point x="267" y="-216"/>
      <point x="267" y="-195" type="curve" smooth="yes"/>
      <point x="267" y="-179"/>
      <point x="266" y="-163"/>
      <point x="250" y="-156" type="curve" smooth="yes"/>
      <point x="221" y="-149"/>
      <point x="213" y="-140"/>
      <point x="213" y="-124" type="curve" smooth="yes"/>
      <point x="213" y="-113"/>
      <point x="220" y="-96"/>
      <point x="221" y="-82" type="curve" smooth="yes"/>
    </contour>
    <contour>
      <point x="110" y="261" type="curve" smooth="yes"/>
      <point x="142" y="261"/>
      <point x="168" y="276"/>
      <point x="193" y="295" type="curve" smooth="yes"/>
      <point x="252" y="343"/>
      <point x="262" y="347"/>
      <point x="332" y="347" type="curve" smooth="yes"/>
      <point x="379" y="347"/>
      <point x="429" y="298"/>
      <point x="429" y="217" type="curve" smooth="yes"/>
      <point x="429" y="128"/>
      <point x="402" y="86"/>
      <point x="318" y="86" type="curve" smooth="yes"/>
      <point x="271" y="86"/>
      <point x="246" y="91"/>
      <point x="202" y="192" type="curve"/>
      <point x="101" y="140" type="line"/>
      <point x="118" y="47"/>
      <point x="187" y="-24"/>
      <point x="307" y="-24" type="curve" smooth="yes"/>
      <point x="489" y="-24"/>
      <point x="612" y="110"/>
      <point x="612" y="246" type="curve" smooth="yes"/>
      <point x="612" y="375"/>
      <point x="533" y="459"/>
      <point x="434" y="459" type="curve" smooth="yes"/>
      <point x="264" y="459"/>
      <point x="184" y="424"/>
      <point x="106" y="355" type="curve" smooth="yes"/>
      <point x="96" y="345"/>
      <point x="82" y="325"/>
      <point x="82" y="304" type="curve" smooth="yes"/>
      <point x="82" y="275"/>
      <point x="95" y="261"/>
    </contour>
  </outline>
</glyph>
<glyph name="t" format="2">
  <advance width="378"/>
  <unicode hex="0074"/>
  <outline>
    <contour>
      <point x="79" y="351" type="line" smooth="yes"/>
      <point x="87" y="346"/>
      <point x="91" y="338"/>
      <point x="91" y="327" type="curve" smooth="yes"/>
      <point x="91" y="314"/>
      <point x="89" y="300"/>
      <point x="83" y="284" type="curve" smooth="yes"/>
      <point x="53" y="194" type="line" smooth="yes"/>
      <point x="31" y="136"/>
      <point x="26" y="108"/>
      <point x="26" y="80" type="curve" smooth="yes"/>
      <point x="26" y="21"/>
      <point x="61" y="-12"/>
      <point x="134" y="-12" type="curve" smooth="yes"/>
      <point x="269" y="-12"/>
      <point x="350" y="55"/>
      <point x="359" y="127" type="curve" smooth="yes"/>
      <point x="359" y="141"/>
      <point x="352" y="152"/>
      <point x="339" y="152" type="curve" smooth="yes"/>
      <point x="329" y="152"/>
      <point x="323" y="148"/>
      <point x="311" y="137" type="curve" smooth="yes"/>
      <point x="292" y="114"/>
      <point x="279" y="106"/>
      <point x="259" y="106" type="curve" smooth="yes"/>
      <point x="236" y="106"/>
      <point x="227" y="120"/>
      <point x="227" y="141" type="curve" smooth="yes"/>
      <point x="227" y="157"/>
      <point x="230" y="173"/>
      <point x="239" y="203" type="curve" smooth="yes"/>
      <point x="317" y="456" type="line" smooth="yes"/>
      <point x="324" y="481"/>
      <point x="326" y="502"/>
      <point x="326" y="517" type="curve" smooth="yes"/>
      <point x="326" y="534"/>
      <point x="316" y="548"/>
      <point x="298" y="548" type="curve" smooth="yes"/>
      <point x="277" y="548"/>
      <point x="257" y="544"/>
      <point x="247" y="532" type="curve" smooth="yes"/>
      <point x="165" y="465" type="line" smooth="yes"/>
      <point x="143" y="442"/>
      <point x="127" y="437"/>
      <point x="102" y="437" type="curve" smooth="yes"/>
      <point x="82" y="437" type="line" smooth="yes"/>
      <point x="53" y="437"/>
      <point x="35" y="422"/>
      <point x="35" y="399" type="curve" smooth="yes"/>
      <point x="35" y="384"/>
      <point x="43" y="370"/>
      <point x="58" y="362" type="curve" smooth="yes"/>
    </contour>
    <contour>
      <point x="245" y="351" type="line"/>
      <point x="343" y="351" type="line" smooth="yes"/>
      <point x="384" y="351"/>
      <point x="411" y="372"/>
      <point x="411" y="406" type="curve" smooth="yes"/>
      <point x="411" y="423"/>
      <point x="402" y="432"/>
      <point x="385" y="432" type="curve" smooth="yes"/>
      <point x="273" y="432" type="line"/>
    </contour>
  </outline>
</glyph>
<glyph name="x" format="2">
  <advance width="633"/>
  <unicode hex="0078"/>
  <outline>
    <contour>
      <point x="210" y="79" type="curve" smooth="yes"/>
      <point x="194" y="79"/>
      <point x="184" y="91"/>
      <point x="184" y="103" type="curve" smooth="yes"/>
      <point x="184" y="112"/>
      <point x="197" y="129"/>
      <point x="197" y="137" type="curve" smooth="yes"/>
      <point x="197" y="178"/>
      <point x="172" y="204"/>
      <point x="131" y="204" type="curve" smooth="yes"/>
      <point x="76" y="204"/>
      <point x="28" y="164"/>
      <point x="28" y="103" type="curve" smooth="yes"/>
      <point x="26" y="43"/>
      <point x="65" y="-14"/>
      <point x="142" y="-14" type="curve" smooth="yes"/>
      <point x="251" y="-14"/>
      <point x="336" y="107"/>
      <point x="294" y="147" type="curve"/>
      <point x="289" y="146" type="line"/>
      <point x="294" y="33"/>
      <point x="344" y="-14"/>
      <point x="468" y="-14" type="curve" smooth="yes"/>
      <point x="585" y="-14"/>
      <point x="677" y="77"/>
      <point x="678" y="151" type="curve" smooth="yes"/>
      <point x="678" y="170"/>
      <point x="667" y="182"/>
      <point x="650" y="182" type="curve" smooth="yes"/>
      <point x="630" y="182"/>
      <point x="623" y="175"/>
      <point x="607" y="154" type="curve" smooth="yes"/>
      <point x="591" y="129"/>
      <point x="567" y="115"/>
      <point x="534" y="115" type="curve" smooth="yes"/>
      <point x="497" y="115"/>
      <point x="460" y="129"/>
      <point x="461" y="176" type="curve" smooth="yes"/>
      <point x="463" y="266"/>
      <point x="514" y="350"/>
      <point x="568" y="350" type="curve" smooth="yes"/>
      <point x="581" y="350"/>
      <point x="589" y="339"/>
      <point x="589" y="325" type="curve" smooth="yes"/>
      <point x="589" y="317"/>
      <point x="579" y="305"/>
      <point x="579" y="299" type="curve" smooth="yes"/>
      <point x="579" y="267"/>
      <point x="600" y="248"/>
      <point x="631" y="248" type="curve" smooth="yes"/>
      <point x="690" y="248"/>
      <point x="740" y="285"/>
      <point x="740" y="349" type="curve" smooth="yes"/>
      <point x="740" y="416"/>
      <point x="702" y="468"/>
      <point x="632" y="468" type="curve" smooth="yes"/>
      <point x="530" y="468"/>
      <point x="429" y="341"/>
      <point x="445" y="257" type="curve"/>
      <point x="455" y="258" type="line"/>
      <point x="459" y="419"/>
      <point x="410" y="468"/>
      <point x="312" y="468" type="curve" smooth="yes"/>
      <point x="206" y="468"/>
      <point x="127" y="397"/>
      <point x="126" y="347" type="curve" smooth="yes"/>
      <point x="126" y="315"/>
      <point x="149" y="306"/>
      <point x="168" y="306" type="curve" smooth="yes"/>
      <point x="188" y="306"/>
      <point x="196" y="316"/>
      <point x="211" y="325" type="curve" smooth="yes"/>
      <point x="237" y="352"/>
      <point x="248" y="352"/>
      <point x="266" y="352" type="curve" smooth="yes"/>
      <point x="280" y="352"/>
      <point x="286" y="337"/>
      <point x="285" y="280" type="curve" smooth="yes"/>
      <point x="283" y="160"/>
      <point x="247" y="79"/>
    </contour>
  </outline>
</glyph>
